<svg xmlns="http://www.w3.org/2000/svg" xmlns:xlink="http://www.w3.org/1999/xlink" width="500" zoomAndPan="magnify" viewBox="0 0 375 195.750001" height="261" preserveAspectRatio="xMidYMid meet" version="1.0"><defs><clipPath id="d7cfa9912f"><path d="M 0.238281 3 L 374.695312 3 L 374.695312 194 L 0.238281 194 Z M 0.238281 3 " clip-rule="nonzero"/></clipPath></defs><g clip-path="url(#d7cfa9912f)"><path fill="#000000" d="M 259.082031 87.71875 C 257.710938 94.371094 255.953125 100.832031 251.917969 106.519531 C 244.917969 116.382812 235.769531 123.898438 225.910156 130.628906 C 224.050781 131.898438 223.386719 133.210938 223.421875 135.390625 C 223.691406 152.234375 223.800781 169.082031 224.117188 185.921875 C 224.164062 188.386719 223.421875 189.242188 221.046875 189.757812 C 194.300781 195.554688 167.566406 194.746094 140.792969 189.964844 C 138.503906 189.554688 137.953125 188.691406 137.953125 186.480469 C 137.933594 168.214844 137.792969 149.949219 137.640625 131.683594 C 137.632812 130.714844 137.441406 129.597656 136.933594 128.804688 C 130.433594 118.710938 127.144531 107.585938 126.167969 95.714844 C 125.859375 91.976562 125.726562 88.226562 125.5 84.21875 C 120.171875 85.121094 115.007812 86 109.65625 86.910156 C 109.78125 87.964844 109.871094 88.808594 109.984375 89.648438 C 111.769531 103.042969 112.476562 116.453125 110.175781 129.863281 C 108.871094 137.453125 106.738281 144.785156 101.945312 150.984375 C 96.949219 157.445312 90.535156 160.917969 82.171875 158.871094 C 79.40625 158.195312 76.835938 156.710938 74.003906 155.527344 C 69.625 159.800781 64.3125 160.84375 58.550781 158.292969 C 56.148438 157.226562 53.980469 155.546875 51.855469 153.953125 C 50.3125 152.796875 49.015625 151.316406 47.648438 150.015625 C 42.695312 153.148438 39.296875 153.171875 34.65625 149.835938 C 32.695312 148.425781 30.890625 146.710938 29.308594 144.882812 C 24.367188 139.167969 20.910156 132.535156 18.054688 125.597656 C 16.0625 120.75 14.335938 115.792969 12.496094 110.898438 C 7.855469 111.585938 6.597656 111.003906 4.359375 106.792969 C 1.839844 102.050781 0.675781 96.914062 0.566406 91.589844 C 0.476562 87.09375 0.417969 82.433594 6.542969 81.8125 C 6.25 77.800781 5.859375 74.042969 5.730469 70.273438 C 5.601562 66.421875 5.582031 62.554688 5.777344 58.707031 C 6.09375 52.480469 6.960938 46.335938 9.417969 40.519531 C 11.203125 36.296875 14.292969 33.261719 18.820312 32.84375 C 22.457031 32.507812 23.570312 30.6875 24.765625 27.695312 C 28.515625 18.296875 33.738281 15.027344 43.003906 15.695312 C 43.683594 14.605469 44.363281 13.457031 45.097656 12.351562 C 51.566406 2.574219 61.183594 0.367188 71.269531 6.394531 C 77.488281 10.109375 82.105469 15.472656 86.167969 21.332031 C 94.238281 32.96875 99.496094 45.902344 103.539062 59.378906 C 103.890625 60.550781 104.296875 61.703125 104.644531 62.773438 C 112.15625 61.558594 119.382812 60.429688 126.585938 59.144531 C 127.191406 59.039062 127.9375 57.945312 128.070312 57.210938 C 129.273438 50.492188 130.296875 43.738281 131.492188 37.015625 C 132.609375 30.714844 135.371094 25.355469 141.074219 21.996094 C 146.148438 19.007812 151.410156 18.613281 156.664062 21.5625 C 161.085938 14.394531 172.988281 10.375 182.554688 16.195312 C 191.390625 7.34375 203.515625 7.195312 214.542969 15.664062 C 216.714844 14.894531 218.714844 13.820312 220.828125 13.503906 C 229.703125 12.160156 236.738281 15.296875 241.796875 22.722656 C 244.945312 27.351562 246.644531 32.550781 247.882812 37.96875 C 248.199219 39.363281 249.046875 41.097656 250.183594 41.765625 C 257.605469 46.121094 262.058594 52.019531 260.933594 61.167969 C 264.160156 61.777344 267.144531 62.34375 270.230469 62.929688 C 270.515625 62.027344 270.757812 61.292969 270.976562 60.550781 C 274.632812 48.210938 279.261719 36.285156 286.09375 25.3125 C 290.410156 18.378906 295.351562 11.980469 302.167969 7.285156 C 312.730469 0.015625 323.226562 2.136719 330.15625 12.90625 C 330.785156 13.878906 331.398438 14.863281 331.988281 15.796875 C 339.078125 14.5 344.160156 17.355469 347.734375 23.046875 C 349.226562 25.421875 350.230469 28.109375 351.304688 30.71875 C 351.746094 31.789062 352.183594 32.304688 353.4375 32.371094 C 359.683594 32.695312 363.875 35.859375 365.96875 41.773438 C 369.625 52.097656 369.585938 62.777344 369.003906 73.503906 C 368.855469 76.242188 368.535156 78.96875 368.300781 81.664062 C 373.359375 83.5 374.335938 84.839844 374.363281 90.34375 C 374.390625 95.683594 373.324219 100.824219 371.085938 105.683594 C 368.804688 110.625 367.597656 111.3125 362.203125 111 C 362.007812 111.558594 361.820312 112.148438 361.59375 112.722656 C 359.246094 118.726562 357.140625 124.835938 354.476562 130.695312 C 351.441406 137.378906 347.636719 143.664062 341.972656 148.546875 C 336.785156 153.015625 333.054688 153.363281 327.203125 150.113281 C 314.371094 161.429688 310.675781 162.160156 300.4375 155.390625 C 299.769531 155.792969 299.105469 156.214844 298.417969 156.597656 C 289.679688 161.480469 280.828125 160.265625 274.398438 152.574219 C 271.535156 149.152344 269.253906 144.992188 267.667969 140.800781 C 262.941406 128.328125 262.808594 115.242188 263.640625 102.132812 C 263.960938 97.125 264.609375 92.132812 265.128906 86.921875 C 263.269531 86.597656 261.445312 86.28125 259.402344 85.929688 C 259.246094 86.800781 259.175781 87.261719 259.082031 87.71875 Z M 159.292969 57.460938 C 158.71875 56.089844 158.289062 54.65625 157.828125 53.242188 C 157.242188 51.453125 156.160156 50.871094 154.355469 51.792969 C 155.320312 54.980469 156.242188 58.171875 157.269531 61.328125 C 157.476562 61.957031 158.078125 62.457031 158.5 63.015625 C 156.546875 62.808594 154.410156 63.035156 152.671875 62.308594 C 148.78125 60.675781 146.664062 57.140625 144.65625 53.625 C 144.152344 52.746094 143.621094 51.878906 142.875 51.15625 C 144.988281 56.152344 146.902344 61.339844 151.828125 64.421875 C 154.503906 66.097656 157.414062 65.792969 160.191406 64.453125 C 162.058594 63.550781 162.835938 61.972656 162.398438 59.96875 C 160.40625 50.832031 158.359375 41.703125 156.3125 32.578125 C 156.160156 31.890625 155.871094 31.234375 155.625 30.570312 C 153.394531 24.605469 149.746094 23.226562 144.160156 26.226562 C 141.042969 27.90625 138.664062 30.980469 137.863281 34.035156 C 139.339844 32.71875 140.914062 30.71875 142.972656 29.640625 C 144.988281 28.582031 147.496094 28.464844 149.785156 27.933594 C 149.851562 28.175781 149.917969 28.414062 149.984375 28.65625 C 148.730469 29.203125 147.4375 29.683594 146.230469 30.316406 C 145.074219 30.925781 144 31.691406 143.058594 32.816406 C 144.507812 32.554688 145.960938 32.296875 147.410156 32.035156 C 144.511719 34.339844 145.261719 36.898438 146.660156 39.472656 C 147.933594 41.820312 149.230469 44.164062 150.667969 46.414062 C 151.210938 47.257812 152.179688 47.828125 153.023438 48.59375 C 152.292969 49.550781 149.777344 49.980469 151 52.546875 C 152.425781 49.902344 154.234375 48.820312 156.464844 49.199219 C 156.925781 49.277344 157.398438 49.402344 157.808594 49.613281 C 160.5625 51.023438 162.15625 60.089844 160.011719 62.273438 C 159.617188 62.679688 158.953125 62.820312 158.410156 63.085938 C 159.949219 61.40625 160.164062 59.546875 159.292969 57.460938 Z M 243.851562 66.066406 C 242.023438 67.6875 240.0625 68.046875 238.054688 67.726562 C 236.308594 67.449219 235.320312 68.160156 234.714844 69.582031 C 233.792969 71.75 232.914062 73.9375 232.160156 76.167969 C 231.214844 78.949219 232.175781 81.429688 233.691406 83.746094 C 234.507812 84.996094 235.40625 86.1875 236.585938 87.859375 C 231.480469 85.839844 228.652344 82.363281 226.972656 77.757812 C 226.75 77.800781 226.527344 77.847656 226.300781 77.890625 C 226.570312 80.902344 226.835938 83.917969 227.105469 86.988281 C 225.03125 84.761719 224.527344 81.945312 224.457031 78.964844 C 224.25 78.921875 224.042969 78.882812 223.839844 78.839844 C 223.28125 80.613281 222.726562 82.382812 222.011719 84.660156 C 221.621094 83.144531 221.3125 81.960938 221.097656 81.121094 C 217.957031 81.300781 214.777344 81.480469 211.160156 81.683594 C 203 93.640625 197.207031 96.097656 187.746094 91.066406 C 182.679688 94.574219 180.296875 99.867188 178.398438 105.511719 C 178.015625 99.589844 180.101562 94.476562 183.292969 90.160156 C 180.207031 90.160156 177.050781 90.269531 173.90625 90.132812 C 170.382812 89.980469 167.585938 88.214844 165.503906 85.480469 C 164.476562 84.128906 163.488281 83.757812 161.9375 84.335938 C 154.578125 87.078125 147.195312 89.75 139.859375 92.546875 C 139.296875 92.761719 138.554688 93.90625 138.699219 94.359375 C 142.066406 104.886719 146.820312 114.5625 156.574219 120.722656 C 163.117188 124.855469 170.464844 126.078125 178.082031 125.660156 C 179.777344 125.566406 180.890625 125.960938 181.96875 127.1875 C 182.832031 128.164062 183.945312 128.921875 185.164062 129.625 C 182.132812 126.28125 179.972656 122.605469 179.722656 117.78125 C 184.863281 125.082031 192.296875 125.820312 199.882812 125.164062 C 214.523438 123.90625 227.011719 117.503906 238.675781 108.777344 C 249.105469 100.976562 253.804688 90.578125 254.796875 78.109375 C 255.339844 71.292969 255.476562 64.445312 255.773438 57.609375 C 255.800781 56.929688 255.675781 56.242188 255.585938 55.09375 C 254.839844 56.054688 254.363281 56.675781 253.886719 57.292969 C 255.886719 51.933594 252.496094 49.515625 248.691406 47.191406 C 247.09375 46.214844 245.714844 44.878906 244.257812 43.679688 C 242.304688 42.074219 240.269531 40.664062 237.457031 40.460938 C 237.28125 41.582031 237.183594 42.578125 236.972656 43.546875 C 236.101562 47.515625 233.101562 49.546875 229.296875 48.324219 C 226.867188 47.542969 224.453125 46.359375 222.402344 44.855469 C 218.488281 41.980469 217.617188 37.71875 219.691406 33.300781 C 220.347656 31.902344 221.230469 30.605469 222.007812 29.257812 C 219.417969 28.417969 217.53125 29.472656 216.472656 32.386719 C 215.140625 36.046875 215.574219 39.71875 216.789062 43.269531 C 219.921875 52.441406 226.46875 58.40625 235.261719 61.953125 C 239.105469 63.5 243.160156 62.726562 247.164062 61.710938 C 245.707031 63.816406 244.175781 64.578125 239.40625 66.066406 C 240.78125 66.066406 242.15625 66.066406 243.851562 66.066406 Z M 55.265625 152.566406 C 62.210938 158.121094 67.605469 157.625 73.738281 150.949219 C 74.78125 151.636719 75.851562 152.375 76.953125 153.070312 C 84.839844 158.070312 92.378906 157.039062 97.738281 150.230469 C 97.96875 149.941406 98.148438 149.609375 98.566406 148.96875 C 92.027344 150.761719 87.640625 147.539062 83.6875 143.488281 C 77.03125 136.667969 72.683594 128.351562 69.089844 119.675781 C 59.03125 95.367188 53.996094 70.078125 54.90625 43.714844 C 55.136719 37.089844 55.929688 30.492188 58.320312 24.269531 C 59.40625 21.449219 60.90625 18.667969 62.761719 16.292969 C 65.546875 12.722656 69.34375 11.964844 73.597656 13.449219 C 74.085938 13.617188 74.585938 13.761719 75.15625 13.71875 C 70.363281 9.214844 65.1875 5.253906 58.109375 6.566406 C 50.972656 7.886719 47.730469 13.667969 44.753906 19.589844 C 44.410156 19.570312 44.082031 19.628906 43.816406 19.523438 C 38 17.1875 32.570312 19.914062 29.660156 25.191406 C 27.890625 28.40625 26.652344 31.914062 25.050781 35.566406 C 24.433594 35.566406 23.433594 35.558594 22.429688 35.566406 C 17.167969 35.613281 13.515625 37.835938 12.066406 42.855469 C 10.679688 47.65625 9.429688 52.648438 9.195312 57.609375 C 7.976562 83.480469 13.007812 108.179688 24.402344 131.460938 C 26.558594 135.859375 29.734375 139.777344 32.625 143.785156 C 33.613281 145.152344 35.082031 146.226562 36.484375 147.226562 C 40.304688 149.949219 43.230469 149.695312 46.632812 146.492188 C 47.03125 146.117188 47.351562 145.667969 47.609375 145.367188 C 50.335938 147.953125 52.636719 150.464844 55.265625 152.566406 Z M 327.316406 145.570312 C 331.386719 150.214844 335.332031 150.425781 340.691406 145.398438 C 346.667969 139.785156 350.425781 132.65625 353.511719 125.222656 C 362.277344 104.097656 366.757812 82.101562 365.785156 59.1875 C 365.566406 53.984375 364.476562 48.726562 363.082031 43.6875 C 361.410156 37.625 357.757812 35.429688 351.445312 35.582031 C 350.820312 35.597656 350.195312 35.585938 349.640625 35.585938 C 348.578125 32.792969 347.707031 30.007812 346.472656 27.390625 C 344.578125 23.371094 341.984375 19.796875 337.253906 19.007812 C 335.019531 18.636719 332.632812 19.171875 330.03125 19.316406 C 326.890625 13.40625 323.484375 7.039062 315.332031 6.394531 C 308.636719 5.867188 303.820312 9.769531 298.792969 14.277344 C 299.523438 14.144531 299.730469 14.148438 299.898438 14.074219 C 305.601562 11.53125 310.097656 12.816406 313.570312 18.015625 C 316.429688 22.289062 317.789062 27.136719 318.664062 32.113281 C 321.179688 46.386719 320.335938 60.65625 318.183594 74.875 C 315.511719 92.535156 310.878906 109.636719 303.015625 125.753906 C 299.761719 132.425781 296.0625 138.859375 290.625 144.019531 C 288.609375 145.929688 286.195312 147.640625 283.65625 148.714844 C 281.621094 149.574219 279.121094 149.328125 276.9375 149.5625 C 280.214844 157.367188 289.6875 158.101562 301.152344 150.957031 C 301.648438 151.5 302.164062 152.070312 302.6875 152.632812 C 306.238281 156.46875 310.75 157.691406 315.269531 155.121094 C 318.753906 153.136719 321.699219 150.1875 324.832031 147.601562 C 325.601562 146.960938 326.160156 146.066406 326.796875 145.3125 C 327.046875 145.433594 327.222656 145.464844 327.316406 145.570312 Z M 215.476562 184.621094 C 217.6875 184.132812 218.257812 183.222656 218.246094 181 C 218.144531 165.335938 218.214844 149.671875 218.222656 134.011719 C 218.222656 133.558594 218.152344 133.105469 218.09375 132.382812 C 207.871094 136.597656 197.257812 137.433594 185.851562 137.390625 C 185.851562 145.328125 185.851562 153.132812 185.851562 160.933594 C 185.578125 160.933594 185.304688 160.933594 185.03125 160.933594 C 184.640625 153.984375 184.148438 147.039062 183.917969 140.085938 C 183.84375 137.828125 183.128906 136.996094 180.914062 137.230469 C 179.605469 137.367188 178.273438 137.253906 176.648438 137.253906 C 176.375 150.359375 176.105469 163.394531 175.832031 176.425781 C 175.722656 176.4375 175.617188 176.445312 175.507812 176.457031 C 174.855469 170.964844 174.195312 165.476562 173.558594 159.988281 C 172.71875 152.796875 171.886719 145.609375 171.082031 138.417969 C 170.933594 137.113281 170.601562 136.140625 169 136.203125 C 168.382812 136.226562 167.761719 135.976562 167.140625 135.878906 C 162.125 135.074219 161.910156 135.070312 161.839844 140.382812 C 161.671875 153.449219 161.71875 166.515625 161.679688 179.578125 C 161.675781 181.613281 161.679688 183.644531 161.679688 185.945312 C 179.945312 187.410156 197.757812 188.515625 215.476562 184.621094 Z M 194.839844 70.722656 C 195.050781 74.972656 195.253906 79.09375 195.46875 83.441406 C 194.023438 83.3125 192.960938 83.21875 191.898438 83.125 C 191.820312 83.300781 191.742188 83.476562 191.664062 83.652344 C 193.335938 84.402344 195.003906 85.152344 196.671875 85.902344 C 196.664062 86.011719 196.65625 86.121094 196.644531 86.230469 C 195.152344 86.128906 193.660156 86.027344 192.164062 85.925781 C 192.0625 86.09375 191.957031 86.265625 191.855469 86.433594 C 193.183594 87.121094 194.4375 88.125 195.847656 88.4375 C 200.066406 89.375 204.648438 87.21875 206.609375 83.351562 C 208.417969 79.78125 209.300781 76.121094 207.75 72.03125 C 206.914062 69.820312 206.589844 67.214844 206.785156 64.851562 C 207.601562 54.90625 208.671875 44.980469 209.710938 35.054688 C 210.003906 32.242188 210.417969 29.433594 210.941406 26.65625 C 211.253906 24.988281 211.878906 23.375 212.449219 21.449219 C 209.867188 18.097656 206.519531 15.40625 201.707031 15.234375 C 199.042969 15.140625 196.367188 15.152344 193.699219 15.25 C 190.066406 15.382812 187.957031 17.675781 186.421875 20.816406 C 190.222656 16.390625 194.910156 15.433594 200.28125 17.027344 C 196.894531 17.546875 192.878906 16.464844 191.46875 20.589844 C 193.699219 20.589844 196.417969 20.589844 199.375 20.589844 C 199.019531 20.867188 198.914062 21.011719 198.78125 21.042969 C 192.574219 22.558594 192.117188 21.78125 191.820312 29.242188 C 191.421875 39.289062 191.746094 49.367188 191.78125 59.429688 C 191.785156 60.835938 191.929688 62.242188 192.019531 63.816406 C 194.0625 63.996094 196.046875 64.175781 198.085938 64.355469 C 195.421875 65.4375 192.929688 66.449219 190.4375 67.460938 C 190.511719 67.523438 190.582031 67.585938 190.65625 67.652344 C 193.789062 67.378906 196.925781 66.847656 200.050781 66.910156 C 203.699219 66.980469 204.792969 68.109375 205.242188 71.679688 C 205.5625 74.242188 205.761719 76.855469 205.636719 79.425781 C 205.484375 82.570312 203.808594 84.28125 200.511719 85.070312 C 203.648438 83.699219 203.84375 81.039062 203.703125 78.242188 C 203.625 76.671875 203.546875 75.101562 203.40625 73.535156 C 203.050781 69.480469 202.59375 68.980469 198.433594 69.21875 C 196.183594 69.347656 193.960938 69.972656 191.726562 70.371094 C 191.777344 70.628906 191.828125 70.890625 191.875 71.148438 C 192.777344 71.015625 193.675781 70.886719 194.839844 70.722656 Z M 173 21.546875 C 169.554688 22.96875 166.058594 24.414062 162.5625 25.855469 C 162.652344 26.246094 162.742188 26.636719 162.835938 27.027344 C 165.226562 27.027344 167.613281 27.027344 170.382812 27.027344 C 167.5625 28.230469 165.15625 29.253906 162.753906 30.28125 C 162.792969 30.476562 162.832031 30.675781 162.867188 30.871094 C 163.492188 30.929688 164.117188 30.988281 164.765625 31.050781 C 166.5625 41.808594 168.363281 52.570312 170.183594 63.453125 C 171.664062 63.453125 172.972656 63.453125 174.941406 63.453125 C 172.199219 65.027344 169.730469 66.070312 168.617188 69.128906 C 174.402344 64.839844 179.464844 64.558594 181.894531 68.132812 C 185.097656 72.832031 184.859375 80.214844 181.203125 82.34375 C 183.917969 79.207031 182.339844 76 181.484375 72.882812 C 180 67.488281 175.503906 66.421875 171.289062 70.359375 C 171.691406 70.726562 172.339844 71.023438 172.449219 71.460938 C 172.84375 73.054688 173.015625 74.707031 173.355469 76.316406 C 173.675781 77.835938 174.097656 79.335938 174.519531 81.023438 C 173.703125 81.023438 173.054688 81.023438 172.40625 81.023438 C 172.351562 81.171875 172.296875 81.324219 172.242188 81.472656 C 173.421875 82.09375 174.597656 82.71875 175.777344 83.34375 C 175.75 83.441406 175.726562 83.535156 175.699219 83.632812 C 174.378906 83.359375 173.054688 83.082031 171.707031 82.800781 C 170.933594 85.382812 172.886719 86.246094 174.683594 86.582031 C 178.144531 87.230469 181.457031 86.382812 184.226562 84.15625 C 186.011719 82.722656 186.398438 80.59375 186.238281 78.367188 C 185.242188 64.554688 184.21875 50.742188 183.285156 36.921875 C 183.035156 33.234375 183.082031 29.527344 182.945312 25.828125 C 182.917969 25.070312 182.917969 24.144531 182.503906 23.601562 C 179.972656 20.269531 176.632812 18.375 172.351562 18.648438 C 167.914062 18.933594 163.949219 20.253906 161.492188 24.402344 C 165.207031 22.722656 168.964844 21.34375 173 21.546875 Z M 142.5 61.605469 C 141.953125 61.128906 140.976562 60.851562 140.242188 60.929688 C 122.925781 62.738281 105.828125 65.824219 88.832031 69.570312 C 87.023438 69.96875 86.261719 70.820312 86.085938 72.496094 C 85.605469 77.089844 86.46875 81.402344 88.710938 85.460938 C 89.636719 87.140625 90.789062 87.613281 92.757812 87.226562 C 104.871094 84.851562 116.976562 82.382812 129.15625 80.410156 C 137.925781 78.992188 146.8125 78.289062 155.648438 77.273438 C 156.503906 77.175781 157.367188 77.128906 158.292969 77.050781 C 158.566406 75.316406 157.800781 74.949219 156.3125 75.078125 C 138.335938 76.632812 120.550781 79.4375 102.910156 83.199219 C 99.835938 83.851562 96.738281 84.425781 93.6875 85.179688 C 91.847656 85.632812 90.59375 85.152344 89.886719 83.425781 C 89.09375 81.5 88.382812 79.542969 87.804688 78.027344 C 89.546875 78.027344 91.019531 78.253906 92.398438 77.992188 C 104.761719 75.667969 117.078125 73.074219 129.476562 70.949219 C 136.054688 69.824219 142.769531 69.46875 149.421875 68.765625 C 149.84375 68.722656 150.269531 68.683594 150.25 68.6875 C 147.75 66.382812 145.179688 63.933594 142.5 61.605469 Z M 260.953125 72.316406 C 260.980469 72.855469 261.695312 73.699219 262.222656 73.8125 C 269.445312 75.363281 276.683594 76.859375 283.941406 78.234375 C 284.832031 78.402344 285.871094 77.789062 287.003906 77.496094 C 286.769531 78.515625 286.59375 79.667969 286.238281 80.765625 C 284.816406 85.191406 283.929688 85.695312 279.472656 84.769531 C 273.703125 83.566406 267.933594 82.335938 262.148438 81.207031 C 261.363281 81.050781 260.476562 81.414062 259.636719 81.535156 C 259.660156 81.855469 259.679688 82.175781 259.699219 82.496094 C 263.050781 83.195312 266.40625 83.894531 269.757812 84.589844 C 274.144531 85.5 278.523438 86.480469 282.933594 87.253906 C 283.722656 87.390625 285.03125 86.941406 285.472656 86.320312 C 288.507812 82.011719 289.46875 77.136719 288.648438 71.976562 C 288.515625 71.144531 287.476562 69.976562 286.675781 69.804688 C 278.53125 68.039062 270.351562 66.449219 262.179688 64.816406 C 261.882812 64.757812 261.570312 64.773438 260.890625 64.730469 C 260.894531 67.316406 260.816406 69.824219 260.953125 72.316406 Z M 234.394531 27.808594 C 234.605469 27.726562 234.820312 27.640625 235.03125 27.554688 C 236.316406 30.828125 237.601562 34.101562 239.039062 37.769531 C 239.722656 37.992188 240.984375 38.402344 242.246094 38.816406 C 242.910156 27.554688 232.15625 16.8125 221.90625 18.644531 C 220.101562 18.964844 218.433594 20.050781 216.914062 21.304688 C 218.367188 20.992188 219.820312 20.675781 221.273438 20.363281 C 217.519531 23.578125 217.023438 24.402344 217.339844 27.335938 C 222.527344 25.96875 228.058594 27.269531 235.152344 35.375 C 234.898438 32.851562 234.644531 30.332031 234.394531 27.808594 Z M 270.933594 88.164062 C 270.523438 91.410156 270.042969 94.558594 269.746094 97.726562 C 268.664062 109.191406 268.15625 120.660156 270.957031 131.972656 C 271.574219 134.457031 272.550781 136.9375 273.804688 139.167969 C 276.824219 144.527344 281.675781 145.453125 286.398438 141.472656 C 288.648438 139.578125 290.714844 137.269531 292.261719 134.777344 C 295.105469 130.207031 297.5 125.359375 300.082031 120.625 C 299.847656 120.5 299.617188 120.375 299.382812 120.246094 C 298.492188 121.972656 297.757812 123.800781 296.679688 125.398438 C 293.738281 129.746094 291.054688 134.363281 287.539062 138.199219 C 282.039062 144.199219 277.117188 142.972656 274.429688 135.285156 C 271.738281 127.582031 271.519531 119.527344 271.882812 111.5 C 272.1875 104.835938 273.023438 98.195312 273.625 91.546875 C 273.703125 90.695312 273.796875 89.851562 273.90625 88.804688 C 272.824219 88.570312 272.066406 88.40625 270.933594 88.164062 Z M 101.011719 88.789062 C 101.476562 92.832031 102 96.785156 102.378906 100.753906 C 103.335938 110.808594 103.761719 120.875 101.644531 130.832031 C 101.066406 133.558594 100.0625 136.292969 98.726562 138.734375 C 96.78125 142.277344 93.570312 143.101562 90.386719 140.617188 C 87.460938 138.332031 84.851562 135.5 82.601562 132.527344 C 80.203125 129.355469 78.386719 125.738281 76.328125 122.335938 C 76.289062 122.402344 76.128906 122.554688 76.160156 122.628906 C 78.835938 129.046875 81.972656 135.199219 86.9375 140.195312 C 88.027344 141.292969 89.371094 142.214844 90.742188 142.941406 C 93.882812 144.601562 97.113281 144.246094 99.261719 141.445312 C 101.078125 139.070312 102.609375 136.265625 103.488281 133.414062 C 106.351562 124.101562 106.257812 114.46875 105.714844 104.863281 C 105.402344 99.382812 104.683594 93.925781 104.117188 88.15625 C 102.847656 88.414062 102.019531 88.582031 101.011719 88.789062 Z M 312.988281 28.113281 C 312.417969 26.097656 311.5625 24.09375 310.46875 22.308594 C 307.890625 18.101562 303.46875 16.941406 299.570312 19.929688 C 296.445312 22.324219 293.601562 25.308594 291.289062 28.503906 C 285.398438 36.640625 278.386719 53.753906 276.234375 64.15625 C 277.101562 64.351562 277.972656 64.546875 278.984375 64.777344 C 280.394531 60.421875 281.714844 56.167969 283.152344 51.953125 C 285.878906 43.972656 289.078125 36.183594 293.863281 29.191406 C 295.617188 26.628906 297.730469 24.191406 300.105469 22.207031 C 303.714844 19.191406 307.445312 19.851562 309.429688 24.132812 C 311.257812 28.0625 312.519531 32.363281 313.335938 36.632812 C 314.214844 41.238281 314.285156 46 314.75 51.175781 C 315.125 43.160156 315.105469 35.542969 312.988281 28.113281 Z M 62.515625 31.753906 C 63.011719 28.957031 64.242188 26.175781 65.667969 23.691406 C 67.796875 19.988281 71.222656 19.160156 74.382812 21.984375 C 77.554688 24.820312 80.410156 28.21875 82.648438 31.835938 C 88.453125 41.191406 91.871094 51.605469 95 62.097656 C 95.246094 62.917969 95.496094 63.738281 95.769531 64.644531 C 96.386719 64.585938 96.925781 64.5625 97.453125 64.46875 C 97.820312 64.40625 98.171875 64.246094 98.914062 64.003906 C 97.234375 59.007812 95.75 54.054688 93.914062 49.230469 C 90.382812 39.945312 86.425781 30.847656 79.582031 23.394531 C 78.320312 22.023438 76.84375 20.75 75.253906 19.789062 C 70.917969 17.160156 66.570312 18.132812 64.253906 22.652344 C 62.667969 25.742188 61.4375 29.214844 60.988281 32.640625 C 60.183594 38.753906 60.089844 44.960938 59.699219 51.128906 C 59.765625 51.121094 59.835938 51.117188 59.90625 51.109375 C 60.742188 44.652344 61.375 38.15625 62.515625 31.753906 Z M 82.796875 57.886719 C 80.519531 57.796875 79.195312 59.492188 78.832031 61.316406 C 78.03125 65.363281 77.175781 69.507812 77.25 73.59375 C 77.386719 80.960938 79.179688 88.089844 82.628906 94.660156 C 83.855469 96.988281 85.421875 99.261719 87.28125 101.109375 C 90.386719 104.199219 93.765625 102.949219 94.621094 98.625 C 94.828125 97.585938 94.886719 96.511719 94.664062 95.359375 C 94.09375 96.617188 93.617188 97.925781 92.933594 99.117188 C 92.027344 100.695312 90.734375 100.972656 89.554688 99.464844 C 88.546875 98.175781 87.597656 96.777344 86.949219 95.285156 C 82.804688 85.792969 80.707031 75.863281 80.828125 65.492188 C 80.839844 64.476562 80.960938 63.445312 81.179688 62.453125 C 81.871094 59.308594 83.152344 58.882812 85.757812 60.871094 C 86.070312 61.109375 86.371094 61.359375 86.679688 61.605469 C 86.039062 59.683594 85.035156 57.976562 82.796875 57.886719 Z M 283.054688 102.503906 C 286.113281 103.574219 288.042969 101.113281 289.617188 98.972656 C 294.359375 92.523438 296.570312 85.050781 297.289062 77.234375 C 297.699219 72.757812 297.121094 68.1875 296.910156 63.664062 C 296.875 62.910156 296.503906 62.148438 296.171875 61.441406 C 295.367188 59.707031 294.507812 57.890625 292.230469 57.890625 C 289.953125 57.886719 288.863281 59.550781 287.898438 61.34375 C 288.117188 61.414062 288.261719 61.515625 288.347656 61.480469 C 289.660156 60.929688 290.964844 60.367188 292.269531 59.804688 C 292.855469 61.289062 293.832031 62.738281 293.957031 64.261719 C 294.582031 71.882812 293.113281 79.296875 291.089844 86.585938 C 290.253906 89.597656 289.003906 92.5 287.878906 95.425781 C 287.546875 96.300781 287.140625 97.214844 286.527344 97.894531 C 285.675781 98.84375 284.597656 99.59375 283.617188 100.425781 C 282.792969 99.453125 281.894531 98.53125 281.164062 97.488281 C 280.738281 96.878906 280.578125 96.085938 280.296875 95.375 C 280.175781 98.207031 279.894531 101.398438 283.054688 102.503906 Z M 220.75 36.75 C 220.488281 37.617188 221.109375 39.269531 221.871094 39.832031 C 224.683594 41.914062 227.605469 43.917969 230.714844 45.511719 C 232.980469 46.667969 235.851562 44.078125 235.429688 41.125 C 235.171875 39.304688 234.269531 37.277344 233.011719 35.957031 C 230.496094 33.316406 227.535156 31.101562 224.214844 28.25 C 222.820312 31.566406 221.554688 34.089844 220.75 36.75 Z M 214.433594 59.25 C 214.433594 63.222656 214.433594 67.015625 214.433594 71.03125 C 213.765625 70.882812 213.140625 70.746094 211.898438 70.476562 C 212.695312 71.285156 213.175781 71.6875 213.550781 72.175781 C 213.933594 72.683594 214.207031 73.277344 214.53125 73.828125 C 214.003906 74.125 213.476562 74.417969 212.875 74.753906 C 214.765625 76.179688 216.800781 75.902344 218.816406 75.074219 C 223.636719 73.085938 225.574219 68.21875 225.890625 63.929688 C 225.925781 63.457031 225.257812 62.816406 224.769531 62.441406 C 223.917969 61.789062 222.957031 61.28125 222.214844 60.820312 C 221.90625 63.953125 221.699219 67.039062 221.238281 70.085938 C 221.117188 70.875 220.203125 71.542969 219.378906 72.046875 C 221.75 68.324219 220.738281 64.480469 219.972656 60.816406 C 219.332031 57.75 214.785156 57.3125 211.527344 60.3125 C 212.824219 59.835938 213.523438 59.582031 214.433594 59.25 Z M 366.097656 95.191406 C 367.164062 95.191406 368.144531 95.191406 369.390625 95.191406 C 368.101562 99.457031 368.300781 104.480469 363.40625 107.085938 C 364.648438 108.292969 365.4375 108.394531 366.410156 107.132812 C 367.167969 106.148438 367.808594 105.035156 368.296875 103.894531 C 370.34375 99.144531 371.363281 94.175781 371.046875 88.992188 C 370.863281 86.0625 370.503906 85.703125 367.851562 85.269531 C 367.269531 88.554688 366.714844 91.703125 366.097656 95.191406 Z M 5.792969 95.246094 C 6.707031 95.246094 7.625 95.246094 8.765625 95.246094 C 8.167969 91.777344 7.628906 88.621094 7.078125 85.421875 C 5.261719 85.089844 4.285156 85.8125 4.078125 87.519531 C 3.253906 94.386719 4.582031 100.808594 8.15625 106.738281 C 9.074219 108.257812 10.289062 108.34375 11.902344 107.140625 C 8.472656 105.753906 5.796875 100.257812 5.792969 95.246094 Z M 211.019531 57.5625 C 213.304688 57.050781 215.515625 56.558594 217.796875 56.046875 C 216.558594 53.527344 215.207031 50.773438 213.765625 47.835938 C 212.6875 51.21875 214.648438 55.273438 211.019531 57.5625 Z M 211.019531 57.5625 " fill-opacity="1" fill-rule="nonzero"/></g><path fill="#ffffff" d="M 239.402344 66.066406 C 240.777344 66.066406 242.15625 66.066406 243.851562 66.066406 C 242.023438 67.6875 240.0625 68.046875 238.054688 67.726562 C 236.308594 67.449219 235.320312 68.160156 234.714844 69.582031 C 233.792969 71.75 232.914062 73.9375 232.160156 76.167969 C 231.214844 78.949219 232.175781 81.429688 233.691406 83.746094 C 234.507812 84.996094 235.40625 86.1875 236.585938 87.859375 C 231.480469 85.839844 228.652344 82.363281 226.972656 77.757812 C 226.75 77.800781 226.527344 77.847656 226.300781 77.890625 C 226.570312 80.902344 226.835938 83.917969 227.105469 86.988281 C 225.03125 84.761719 224.527344 81.945312 224.457031 78.964844 C 224.25 78.921875 224.042969 78.882812 223.839844 78.839844 C 223.28125 80.613281 222.726562 82.382812 222.011719 84.660156 C 221.621094 83.144531 221.3125 81.960938 221.097656 81.121094 C 217.957031 81.300781 214.777344 81.480469 211.160156 81.683594 C 203 93.640625 197.207031 96.097656 187.746094 91.066406 C 182.679688 94.574219 180.296875 99.867188 178.398438 105.511719 C 178.015625 99.589844 180.101562 94.476562 183.292969 90.160156 C 180.207031 90.160156 177.050781 90.269531 173.90625 90.132812 C 170.382812 89.980469 167.585938 88.214844 165.503906 85.480469 C 164.476562 84.128906 163.488281 83.757812 161.9375 84.335938 C 154.578125 87.078125 147.195312 89.75 139.859375 92.546875 C 139.296875 92.761719 138.554688 93.90625 138.699219 94.359375 C 142.066406 104.886719 146.820312 114.5625 156.574219 120.722656 C 163.117188 124.855469 170.464844 126.078125 178.082031 125.660156 C 179.777344 125.566406 180.890625 125.960938 181.96875 127.1875 C 182.832031 128.164062 183.945312 128.921875 185.164062 129.625 C 182.132812 126.28125 179.972656 122.605469 179.722656 117.78125 C 184.863281 125.082031 192.296875 125.820312 199.882812 125.164062 C 214.523438 123.90625 227.011719 117.503906 238.675781 108.777344 C 249.105469 100.976562 253.804688 90.578125 254.796875 78.109375 C 255.339844 71.292969 255.476562 64.445312 255.773438 57.609375 C 255.800781 56.929688 255.675781 56.242188 255.585938 55.09375 C 254.839844 56.054688 254.363281 56.675781 253.886719 57.292969 C 255.886719 51.933594 252.496094 49.515625 248.691406 47.191406 C 247.09375 46.214844 245.714844 44.878906 244.257812 43.679688 C 242.304688 42.074219 240.269531 40.664062 237.457031 40.460938 C 237.285156 41.582031 237.183594 42.578125 236.972656 43.546875 C 236.101562 47.515625 233.101562 49.546875 229.296875 48.324219 C 226.867188 47.542969 224.453125 46.359375 222.402344 44.855469 C 218.488281 41.980469 217.617188 37.71875 219.691406 33.300781 C 220.347656 31.902344 221.230469 30.605469 222.007812 29.257812 C 219.417969 28.417969 217.53125 29.472656 216.472656 32.386719 C 215.140625 36.046875 215.574219 39.71875 216.789062 43.269531 C 219.925781 52.441406 226.46875 58.40625 235.261719 61.953125 C 239.105469 63.5 243.160156 62.726562 247.164062 61.710938 C 245.703125 63.820312 244.171875 64.582031 239.402344 66.066406 Z M 239.402344 66.066406 " fill-opacity="1" fill-rule="nonzero"/><path fill="#ffffff" d="M 46.636719 146.488281 C 43.230469 149.691406 40.308594 149.949219 36.484375 147.222656 C 35.085938 146.226562 33.613281 145.152344 32.625 143.785156 C 29.734375 139.777344 26.558594 135.859375 24.40625 131.460938 C 13.007812 108.179688 7.976562 83.480469 9.195312 57.609375 C 9.429688 52.648438 10.679688 47.65625 12.066406 42.855469 C 13.515625 37.835938 17.167969 35.613281 22.433594 35.566406 C 23.433594 35.558594 24.433594 35.566406 25.050781 35.566406 C 26.652344 31.914062 27.890625 28.40625 29.660156 25.191406 C 32.570312 19.914062 38.003906 17.1875 43.816406 19.523438 C 44.082031 19.628906 44.410156 19.570312 44.753906 19.589844 C 47.730469 13.667969 50.972656 7.886719 58.109375 6.566406 C 65.191406 5.257812 70.363281 9.214844 75.15625 13.71875 C 74.585938 13.765625 74.085938 13.617188 73.597656 13.449219 C 69.34375 11.964844 65.546875 12.726562 62.761719 16.292969 C 60.90625 18.667969 59.40625 21.449219 58.320312 24.269531 C 55.929688 30.496094 55.136719 37.089844 54.90625 43.714844 C 53.996094 70.078125 59.03125 95.367188 69.089844 119.675781 C 72.683594 128.355469 77.03125 136.667969 83.6875 143.488281 C 87.640625 147.542969 92.027344 150.761719 98.566406 148.96875 C 98.148438 149.609375 97.96875 149.941406 97.738281 150.234375 C 92.378906 157.039062 84.84375 158.070312 76.953125 153.070312 C 75.851562 152.375 74.78125 151.640625 73.738281 150.949219 C 67.605469 157.625 62.210938 158.121094 55.265625 152.566406 C 52.636719 150.464844 50.335938 147.953125 47.609375 145.367188 C 47.351562 145.667969 47.03125 146.117188 46.636719 146.488281 Z M 30.78125 46.28125 C 33.5 45.355469 36.03125 47.40625 35.976562 50.269531 C 35.511719 74.660156 40.625 98.070312 48.460938 120.988281 C 49.042969 122.695312 48.625 123.773438 47.261719 124.570312 C 44.558594 126.148438 41.792969 126.480469 38.992188 124.496094 C 38.9375 124.769531 38.789062 125.027344 38.863281 125.167969 C 43.140625 132.96875 47.308594 140.890625 53.640625 147.261719 C 56.015625 149.652344 59.007812 151.675781 62.082031 153.0625 C 65.6875 154.691406 69.066406 153.214844 71.886719 149.746094 C 69.335938 146.914062 66.730469 144.105469 64.21875 141.210938 C 56.273438 132.058594 51.179688 121.398438 48.078125 109.78125 C 43.101562 91.128906 38.859375 72.347656 39.171875 52.855469 C 39.324219 43.433594 40.511719 34.195312 43.820312 25.316406 C 44.289062 24.0625 44.011719 23.488281 42.847656 22.96875 C 39.429688 21.441406 35.503906 22.558594 33.339844 25.914062 C 30.511719 30.300781 29.414062 35.3125 28.445312 40.34375 C 27.914062 43.117188 27.535156 45.921875 27.09375 48.679688 C 28.363281 47.828125 29.460938 46.734375 30.78125 46.28125 Z M 26.902344 131.871094 C 29.863281 135.921875 32.710938 140.113281 36.109375 143.777344 C 40.269531 148.261719 43.042969 147.9375 47.097656 143.554688 C 26.175781 111.398438 20.070312 76.328125 25.378906 38.839844 C 19.957031 37.179688 15.90625 38.898438 13.828125 44.140625 C 12.773438 46.800781 12.265625 49.671875 11.996094 52.613281 C 12.996094 51.671875 13.851562 50.402344 15.035156 49.886719 C 16.199219 49.382812 17.785156 49.324219 19.027344 49.652344 C 20.515625 50.050781 20.597656 51.515625 20.503906 52.980469 C 18.941406 77.441406 23.308594 100.910156 32.292969 123.628906 C 32.710938 124.6875 32.75 126.621094 32.105469 127.203125 C 31.105469 128.117188 29.378906 128.511719 27.933594 128.570312 C 26.917969 128.609375 25.867188 127.722656 24.375 127.042969 C 25.324219 128.890625 25.914062 130.523438 26.902344 131.871094 Z M 76.246094 138.308594 C 72.6875 132.871094 69.863281 126.957031 66.742188 121.234375 C 66.269531 120.371094 65.953125 119.421875 65.535156 118.445312 C 62.433594 122.699219 60.226562 123.25 55.003906 120.792969 C 56.183594 123.105469 57.097656 125.0625 58.15625 126.941406 C 62.550781 134.730469 67.691406 141.957031 74.453125 147.902344 C 77.738281 150.792969 81.347656 153.109375 85.757812 153.972656 C 88.574219 154.519531 90.808594 153.613281 92.953125 151.5625 C 85.144531 149.773438 80.238281 144.410156 76.246094 138.308594 Z M 51.75 44.699219 C 52.324219 40.414062 52.761719 36.15625 53.492188 31.949219 C 54.464844 26.34375 55.988281 20.890625 59.332031 16.144531 C 61.835938 12.585938 63.734375 11.394531 67.925781 10.574219 C 65.042969 7.632812 58.652344 7.292969 54.472656 10.140625 C 52.835938 11.257812 51.339844 12.820312 50.265625 14.492188 C 46.046875 21.070312 44.539062 28.554688 43.546875 36.160156 C 43.140625 39.261719 42.878906 42.378906 42.488281 46.09375 C 45.832031 42.164062 47.515625 41.992188 51.75 44.699219 Z M 51.75 44.699219 " fill-opacity="1" fill-rule="nonzero"/><path fill="#ffffff" d="M 324.832031 147.601562 C 321.699219 150.1875 318.753906 153.136719 315.269531 155.121094 C 310.75 157.695312 306.238281 156.46875 302.6875 152.636719 C 302.164062 152.070312 301.648438 151.5 301.152344 150.957031 C 289.6875 158.105469 280.214844 157.367188 276.9375 149.566406 C 279.121094 149.332031 281.621094 149.574219 283.65625 148.714844 C 286.195312 147.640625 288.609375 145.933594 290.625 144.019531 C 296.0625 138.863281 299.761719 132.429688 303.015625 125.757812 C 310.878906 109.636719 315.511719 92.539062 318.183594 74.875 C 320.335938 60.65625 321.179688 46.390625 318.664062 32.113281 C 317.789062 27.136719 316.429688 22.292969 313.570312 18.015625 C 310.097656 12.816406 305.597656 11.535156 299.898438 14.074219 C 299.730469 14.152344 299.523438 14.148438 298.792969 14.277344 C 303.820312 9.769531 308.636719 5.867188 315.332031 6.398438 C 323.484375 7.042969 326.890625 13.410156 330.027344 19.316406 C 332.632812 19.175781 335.019531 18.636719 337.253906 19.007812 C 341.984375 19.796875 344.578125 23.371094 346.472656 27.394531 C 347.707031 30.007812 348.578125 32.792969 349.640625 35.585938 C 350.195312 35.585938 350.820312 35.601562 351.445312 35.585938 C 357.757812 35.429688 361.410156 37.628906 363.082031 43.691406 C 364.476562 48.730469 365.566406 53.984375 365.785156 59.1875 C 366.753906 82.101562 362.277344 104.097656 353.511719 125.222656 C 350.425781 132.65625 346.667969 139.785156 340.691406 145.398438 C 335.332031 150.429688 331.386719 150.21875 327.316406 145.570312 C 327.226562 145.46875 327.046875 145.4375 326.796875 145.316406 C 326.160156 146.070312 325.601562 146.964844 324.832031 147.601562 Z M 334.679688 39.882812 C 336.535156 51.554688 336.019531 63.273438 334.253906 74.914062 C 332.085938 89.226562 329.179688 103.394531 324.464844 117.125 C 320.75 127.941406 314.722656 137.339844 306.796875 145.554688 C 305.5 146.898438 304.28125 148.320312 303.035156 149.695312 C 305.769531 153.351562 309.476562 154.726562 313.414062 152.839844 C 316.261719 151.480469 319.023438 149.570312 321.230469 147.324219 C 327.625 140.808594 331.808594 132.742188 336.050781 125.269531 C 333.878906 125.324219 331.605469 125.71875 329.453125 125.363281 C 326.425781 124.867188 325.765625 123.117188 326.730469 120.238281 C 334.238281 97.816406 339.273438 74.941406 338.914062 51.140625 C 338.878906 48.824219 339.316406 47.03125 341.648438 46.308594 C 343.839844 45.625 345.65625 46.382812 346.980469 48.273438 C 347.101562 48.445312 347.269531 48.585938 347.746094 49.085938 C 346.746094 41.109375 345.75 33.574219 342.09375 26.746094 C 339.664062 22.210938 335.382812 21.152344 331.011719 23.644531 C 332.289062 29.1875 333.820312 34.480469 334.679688 39.882812 Z M 330.082031 145.625 C 332.644531 147.414062 334.550781 147.414062 336.960938 145.441406 C 342.917969 140.5625 347.0625 134.335938 350.476562 127.066406 C 349.167969 127.679688 348.257812 128.234375 347.269531 128.542969 C 345.566406 129.074219 344.015625 128.769531 342.75 127.382812 C 341.585938 126.105469 342.015625 124.875 342.574219 123.472656 C 351.644531 100.714844 356.03125 77.171875 354.359375 52.625 C 354.167969 49.777344 356.859375 48.152344 359.535156 49.660156 C 360.785156 50.367188 361.757812 51.566406 362.8125 52.5 C 363.195312 49.027344 361.351562 43.207031 358.976562 40.726562 C 356.242188 37.867188 352.917969 37.886719 349.472656 38.707031 C 354.847656 76.292969 348.703125 111.261719 327.742188 143.671875 C 328.28125 144.125 329.125 144.957031 330.082031 145.625 Z M 309.503906 118.519531 C 303.074219 131.722656 297.589844 145.695312 282.253906 151.875 C 284.035156 153.609375 286.234375 154.496094 288.988281 153.996094 C 294.089844 153.066406 298.09375 150.199219 301.722656 146.746094 C 309.226562 139.609375 314.90625 131.164062 319.324219 121.839844 C 319.445312 121.585938 319.472656 121.285156 319.570312 120.90625 C 314.648438 123.289062 312.257812 122.703125 309.503906 118.519531 Z M 324.21875 13.78125 C 320.40625 7.886719 312.203125 6.40625 306.472656 10.675781 C 311.515625 10.824219 314.398438 13.917969 316.613281 17.769531 C 320.382812 24.324219 321.617188 31.613281 322.457031 38.992188 C 322.667969 40.863281 322.816406 42.742188 322.972656 44.421875 C 324.644531 43.894531 326.351562 42.871094 327.964844 42.996094 C 329.457031 43.113281 330.855469 44.464844 332.304688 45.277344 C 331.234375 34.542969 330.484375 23.464844 324.21875 13.78125 Z M 324.21875 13.78125 " fill-opacity="1" fill-rule="nonzero"/><path fill="#ffffff" d="M 161.679688 185.949219 C 179.945312 187.410156 197.757812 188.515625 215.476562 184.621094 C 217.6875 184.132812 218.257812 183.222656 218.246094 181 C 218.144531 165.335938 218.214844 149.671875 218.222656 134.011719 C 218.222656 133.558594 218.152344 133.105469 218.09375 132.382812 C 207.871094 136.597656 197.257812 137.433594 185.851562 137.390625 C 185.851562 145.328125 185.851562 153.132812 185.851562 160.933594 C 185.578125 160.933594 185.304688 160.933594 185.03125 160.933594 C 184.640625 153.984375 184.148438 147.039062 183.917969 140.085938 C 183.84375 137.828125 183.128906 136.996094 180.914062 137.230469 C 179.605469 137.367188 178.273438 137.253906 176.648438 137.253906 C 176.375 150.359375 176.105469 163.394531 175.832031 176.425781 C 175.722656 176.4375 175.617188 176.445312 175.507812 176.457031 C 174.855469 170.964844 174.195312 165.476562 173.558594 159.988281 C 172.71875 152.796875 171.886719 145.609375 171.082031 138.417969 C 170.933594 137.113281 170.601562 136.140625 169 136.203125 C 168.382812 136.226562 167.761719 135.976562 167.140625 135.878906 C 162.125 135.074219 161.910156 135.070312 161.839844 140.382812 C 161.671875 153.449219 161.71875 166.515625 161.679688 179.578125 C 161.675781 181.613281 161.679688 183.644531 161.679688 185.949219 Z M 161.679688 185.949219 " fill-opacity="1" fill-rule="nonzero"/><path fill="#ffffff" d="M 191.875 71.148438 C 192.777344 71.015625 193.679688 70.886719 194.839844 70.722656 C 195.050781 74.972656 195.253906 79.09375 195.46875 83.441406 C 194.023438 83.3125 192.960938 83.21875 191.898438 83.125 C 191.820312 83.300781 191.742188 83.476562 191.664062 83.652344 C 193.335938 84.402344 195.003906 85.152344 196.671875 85.902344 C 196.664062 86.011719 196.65625 86.121094 196.644531 86.230469 C 195.152344 86.128906 193.660156 86.027344 192.164062 85.925781 C 192.0625 86.09375 191.957031 86.265625 191.855469 86.433594 C 193.183594 87.121094 194.4375 88.125 195.847656 88.4375 C 200.066406 89.375 204.648438 87.21875 206.609375 83.351562 C 208.417969 79.78125 209.300781 76.121094 207.75 72.03125 C 206.914062 69.820312 206.589844 67.214844 206.785156 64.851562 C 207.601562 54.90625 208.671875 44.980469 209.710938 35.054688 C 210.003906 32.242188 210.417969 29.433594 210.941406 26.65625 C 211.253906 24.988281 211.878906 23.375 212.449219 21.449219 C 209.867188 18.097656 206.519531 15.40625 201.707031 15.234375 C 199.042969 15.140625 196.367188 15.152344 193.699219 15.25 C 190.066406 15.382812 187.957031 17.675781 186.421875 20.816406 C 190.222656 16.390625 194.910156 15.433594 200.28125 17.027344 C 196.894531 17.546875 192.878906 16.464844 191.46875 20.589844 C 193.699219 20.589844 196.417969 20.589844 199.375 20.589844 C 199.019531 20.867188 198.914062 21.011719 198.78125 21.042969 C 192.574219 22.558594 192.117188 21.78125 191.820312 29.242188 C 191.421875 39.289062 191.746094 49.367188 191.78125 59.429688 C 191.785156 60.835938 191.929688 62.242188 192.019531 63.816406 C 194.0625 63.996094 196.046875 64.175781 198.085938 64.355469 C 195.421875 65.4375 192.929688 66.449219 190.4375 67.460938 C 190.511719 67.523438 190.582031 67.585938 190.65625 67.652344 C 193.789062 67.378906 196.925781 66.847656 200.050781 66.910156 C 203.699219 66.980469 204.792969 68.109375 205.242188 71.679688 C 205.5625 74.242188 205.761719 76.855469 205.636719 79.425781 C 205.484375 82.570312 203.808594 84.28125 200.511719 85.070312 C 203.648438 83.699219 203.84375 81.039062 203.703125 78.242188 C 203.625 76.671875 203.546875 75.101562 203.40625 73.535156 C 203.050781 69.480469 202.59375 68.980469 198.433594 69.21875 C 196.183594 69.347656 193.960938 69.972656 191.726562 70.371094 C 191.777344 70.628906 191.828125 70.886719 191.875 71.148438 Z M 191.875 71.148438 " fill-opacity="1" fill-rule="nonzero"/><path fill="#ffffff" d="M 161.488281 24.402344 C 165.207031 22.722656 168.964844 21.347656 173 21.546875 C 169.554688 22.96875 166.058594 24.414062 162.5625 25.855469 C 162.652344 26.246094 162.742188 26.636719 162.835938 27.027344 C 165.226562 27.027344 167.613281 27.027344 170.382812 27.027344 C 167.5625 28.230469 165.15625 29.253906 162.753906 30.28125 C 162.792969 30.476562 162.832031 30.675781 162.867188 30.871094 C 163.492188 30.929688 164.117188 30.988281 164.765625 31.050781 C 166.5625 41.808594 168.363281 52.570312 170.183594 63.453125 C 171.664062 63.453125 172.972656 63.453125 174.941406 63.453125 C 172.199219 65.027344 169.730469 66.070312 168.617188 69.128906 C 174.402344 64.839844 179.464844 64.558594 181.894531 68.132812 C 185.097656 72.832031 184.859375 80.214844 181.203125 82.34375 C 183.917969 79.207031 182.339844 76 181.484375 72.882812 C 180 67.488281 175.503906 66.421875 171.289062 70.363281 C 171.691406 70.726562 172.339844 71.023438 172.449219 71.460938 C 172.84375 73.054688 173.015625 74.707031 173.355469 76.316406 C 173.675781 77.835938 174.097656 79.335938 174.519531 81.023438 C 173.707031 81.023438 173.054688 81.023438 172.40625 81.023438 C 172.351562 81.171875 172.296875 81.324219 172.242188 81.472656 C 173.421875 82.09375 174.597656 82.71875 175.777344 83.34375 C 175.753906 83.441406 175.726562 83.535156 175.703125 83.632812 C 174.378906 83.359375 173.054688 83.082031 171.710938 82.800781 C 170.9375 85.382812 172.886719 86.246094 174.683594 86.582031 C 178.144531 87.230469 181.460938 86.382812 184.226562 84.15625 C 186.011719 82.722656 186.398438 80.59375 186.238281 78.367188 C 185.242188 64.554688 184.21875 50.742188 183.285156 36.921875 C 183.035156 33.234375 183.082031 29.527344 182.945312 25.828125 C 182.917969 25.070312 182.917969 24.144531 182.507812 23.601562 C 179.972656 20.269531 176.632812 18.375 172.351562 18.648438 C 167.910156 18.933594 163.945312 20.253906 161.488281 24.402344 Z M 161.488281 24.402344 " fill-opacity="1" fill-rule="nonzero"/><path fill="#ffffff" d="M 150.25 68.6875 C 147.75 66.382812 145.179688 63.933594 142.5 61.605469 C 141.953125 61.128906 140.976562 60.851562 140.242188 60.929688 C 122.925781 62.738281 105.828125 65.824219 88.832031 69.570312 C 87.023438 69.96875 86.261719 70.820312 86.085938 72.496094 C 85.605469 77.089844 86.46875 81.402344 88.710938 85.460938 C 89.636719 87.140625 90.789062 87.613281 92.757812 87.226562 C 104.871094 84.851562 116.976562 82.382812 129.15625 80.410156 C 137.925781 78.992188 146.8125 78.289062 155.648438 77.273438 C 156.503906 77.175781 157.367188 77.128906 158.292969 77.050781 C 158.566406 75.316406 157.800781 74.949219 156.3125 75.078125 C 138.335938 76.632812 120.550781 79.4375 102.910156 83.199219 C 99.835938 83.851562 96.738281 84.425781 93.6875 85.179688 C 91.847656 85.632812 90.59375 85.152344 89.886719 83.425781 C 89.09375 81.5 88.382812 79.542969 87.804688 78.027344 C 89.546875 78.027344 91.019531 78.253906 92.398438 77.992188 C 104.761719 75.667969 117.078125 73.074219 129.476562 70.949219 C 136.054688 69.824219 142.769531 69.46875 149.421875 68.765625 C 149.84375 68.722656 150.269531 68.6875 150.25 68.6875 Z M 150.25 68.6875 " fill-opacity="1" fill-rule="nonzero"/><path fill="#ffffff" d="M 260.894531 64.734375 C 260.894531 67.316406 260.816406 69.824219 260.953125 72.316406 C 260.980469 72.855469 261.695312 73.699219 262.222656 73.8125 C 269.445312 75.363281 276.683594 76.859375 283.941406 78.234375 C 284.832031 78.402344 285.871094 77.789062 287.003906 77.496094 C 286.769531 78.515625 286.59375 79.667969 286.238281 80.765625 C 284.816406 85.191406 283.929688 85.695312 279.472656 84.769531 C 273.703125 83.566406 267.933594 82.335938 262.148438 81.207031 C 261.363281 81.050781 260.476562 81.414062 259.636719 81.535156 C 259.660156 81.855469 259.679688 82.175781 259.699219 82.496094 C 263.050781 83.195312 266.40625 83.894531 269.757812 84.589844 C 274.144531 85.5 278.523438 86.480469 282.933594 87.253906 C 283.722656 87.390625 285.03125 86.941406 285.472656 86.320312 C 288.507812 82.011719 289.46875 77.136719 288.648438 71.976562 C 288.515625 71.144531 287.476562 69.976562 286.675781 69.804688 C 278.53125 68.039062 270.351562 66.449219 262.179688 64.816406 C 261.886719 64.757812 261.574219 64.773438 260.894531 64.734375 Z M 260.894531 64.734375 " fill-opacity="1" fill-rule="nonzero"/><path fill="#ffffff" d="M 158.5 63.011719 C 156.546875 62.808594 154.410156 63.035156 152.671875 62.308594 C 148.78125 60.675781 146.664062 57.140625 144.65625 53.625 C 144.152344 52.746094 143.621094 51.878906 142.875 51.15625 C 144.988281 56.152344 146.902344 61.339844 151.828125 64.421875 C 154.503906 66.097656 157.414062 65.792969 160.191406 64.453125 C 162.058594 63.550781 162.835938 61.972656 162.398438 59.96875 C 160.40625 50.832031 158.359375 41.703125 156.3125 32.578125 C 156.160156 31.890625 155.871094 31.234375 155.625 30.570312 C 153.394531 24.605469 149.746094 23.226562 144.160156 26.226562 C 141.042969 27.90625 138.664062 30.980469 137.863281 34.035156 C 139.339844 32.71875 140.914062 30.71875 142.972656 29.640625 C 144.988281 28.582031 147.496094 28.464844 149.785156 27.933594 C 149.851562 28.175781 149.917969 28.414062 149.984375 28.65625 C 148.730469 29.203125 147.4375 29.683594 146.230469 30.316406 C 145.074219 30.925781 144 31.691406 143.058594 32.816406 C 144.507812 32.554688 145.960938 32.296875 147.410156 32.035156 C 144.511719 34.339844 145.261719 36.898438 146.660156 39.472656 C 147.933594 41.820312 149.230469 44.164062 150.667969 46.414062 C 151.210938 47.257812 152.179688 47.828125 153.023438 48.59375 C 152.292969 49.550781 149.777344 49.980469 151 52.546875 C 152.425781 49.902344 154.234375 48.820312 156.464844 49.199219 C 156.925781 49.277344 157.398438 49.402344 157.808594 49.613281 C 160.5625 51.023438 162.15625 60.089844 160.011719 62.273438 C 159.617188 62.679688 158.953125 62.820312 158.410156 63.085938 Z M 158.5 63.011719 " fill-opacity="1" fill-rule="nonzero"/><path fill="#ffffff" d="M 235.152344 35.375 C 234.898438 32.851562 234.644531 30.332031 234.394531 27.808594 C 234.605469 27.726562 234.820312 27.640625 235.03125 27.554688 C 236.316406 30.828125 237.601562 34.101562 239.039062 37.769531 C 239.722656 37.992188 240.984375 38.402344 242.246094 38.816406 C 242.910156 27.554688 232.15625 16.8125 221.90625 18.644531 C 220.101562 18.964844 218.433594 20.050781 216.914062 21.304688 C 218.367188 20.992188 219.820312 20.675781 221.273438 20.363281 C 217.519531 23.578125 217.023438 24.402344 217.339844 27.335938 C 222.527344 25.96875 228.058594 27.269531 235.152344 35.375 Z M 235.152344 35.375 " fill-opacity="1" fill-rule="nonzero"/><path fill="#ffffff" d="M 273.90625 88.804688 C 272.824219 88.570312 272.066406 88.40625 270.933594 88.164062 C 270.523438 91.414062 270.042969 94.5625 269.746094 97.726562 C 268.664062 109.195312 268.15625 120.660156 270.957031 131.972656 C 271.574219 134.460938 272.546875 136.9375 273.804688 139.167969 C 276.820312 144.527344 281.675781 145.453125 286.398438 141.472656 C 288.648438 139.578125 290.714844 137.273438 292.261719 134.78125 C 295.101562 130.207031 297.5 125.359375 300.082031 120.628906 C 299.847656 120.5 299.617188 120.375 299.382812 120.25 C 298.492188 121.972656 297.757812 123.800781 296.675781 125.398438 C 293.738281 129.746094 291.054688 134.363281 287.535156 138.203125 C 282.039062 144.203125 277.117188 142.972656 274.429688 135.285156 C 271.738281 127.582031 271.519531 119.527344 271.882812 111.5 C 272.183594 104.835938 273.019531 98.195312 273.625 91.546875 C 273.703125 90.695312 273.796875 89.847656 273.90625 88.804688 Z M 273.90625 88.804688 " fill-opacity="1" fill-rule="nonzero"/><path fill="#ffffff" d="M 104.117188 88.15625 C 102.847656 88.414062 102.019531 88.582031 101.011719 88.789062 C 101.476562 92.832031 102 96.785156 102.378906 100.753906 C 103.335938 110.808594 103.761719 120.875 101.644531 130.832031 C 101.066406 133.558594 100.0625 136.292969 98.726562 138.734375 C 96.78125 142.277344 93.570312 143.101562 90.386719 140.617188 C 87.460938 138.332031 84.851562 135.5 82.601562 132.527344 C 80.203125 129.355469 78.386719 125.738281 76.328125 122.335938 C 76.289062 122.402344 76.128906 122.554688 76.160156 122.628906 C 78.835938 129.046875 81.972656 135.199219 86.9375 140.195312 C 88.027344 141.292969 89.371094 142.214844 90.742188 142.941406 C 93.882812 144.601562 97.113281 144.246094 99.261719 141.445312 C 101.078125 139.070312 102.609375 136.265625 103.488281 133.414062 C 106.351562 124.101562 106.257812 114.46875 105.714844 104.863281 C 105.402344 99.382812 104.683594 93.925781 104.117188 88.15625 Z M 104.117188 88.15625 " fill-opacity="1" fill-rule="nonzero"/><path fill="#ffffff" d="M 314.75 51.175781 C 315.125 43.160156 315.105469 35.542969 312.988281 28.113281 C 312.417969 26.097656 311.5625 24.09375 310.46875 22.308594 C 307.890625 18.101562 303.46875 16.941406 299.570312 19.929688 C 296.445312 22.324219 293.601562 25.308594 291.289062 28.503906 C 285.398438 36.640625 278.386719 53.753906 276.234375 64.15625 C 277.101562 64.351562 277.972656 64.546875 278.984375 64.777344 C 280.394531 60.421875 281.714844 56.167969 283.152344 51.953125 C 285.878906 43.972656 289.078125 36.183594 293.863281 29.191406 C 295.617188 26.628906 297.730469 24.191406 300.105469 22.207031 C 303.714844 19.191406 307.445312 19.851562 309.429688 24.132812 C 311.257812 28.0625 312.519531 32.363281 313.335938 36.632812 C 314.214844 41.238281 314.285156 46 314.75 51.175781 Z M 314.75 51.175781 " fill-opacity="1" fill-rule="nonzero"/><path fill="#ffffff" d="M 59.90625 51.109375 C 60.742188 44.652344 61.375 38.15625 62.515625 31.753906 C 63.011719 28.957031 64.242188 26.175781 65.667969 23.691406 C 67.796875 19.988281 71.222656 19.160156 74.382812 21.984375 C 77.554688 24.820312 80.410156 28.21875 82.648438 31.835938 C 88.453125 41.191406 91.871094 51.605469 95 62.097656 C 95.246094 62.917969 95.496094 63.738281 95.769531 64.644531 C 96.386719 64.585938 96.925781 64.5625 97.453125 64.46875 C 97.820312 64.40625 98.171875 64.246094 98.914062 64.003906 C 97.234375 59.007812 95.75 54.054688 93.914062 49.230469 C 90.382812 39.945312 86.425781 30.847656 79.582031 23.394531 C 78.320312 22.023438 76.84375 20.75 75.253906 19.789062 C 70.917969 17.160156 66.570312 18.132812 64.253906 22.652344 C 62.667969 25.742188 61.4375 29.214844 60.988281 32.640625 C 60.183594 38.753906 60.089844 44.960938 59.699219 51.128906 C 59.765625 51.121094 59.835938 51.117188 59.90625 51.109375 Z M 59.90625 51.109375 " fill-opacity="1" fill-rule="nonzero"/><path fill="#ffffff" d="M 86.679688 61.605469 C 86.039062 59.683594 85.035156 57.976562 82.800781 57.886719 C 80.519531 57.796875 79.199219 59.492188 78.835938 61.316406 C 78.03125 65.363281 77.179688 69.507812 77.253906 73.59375 C 77.386719 80.960938 79.179688 88.089844 82.628906 94.660156 C 83.855469 96.988281 85.421875 99.261719 87.28125 101.109375 C 90.386719 104.199219 93.765625 102.949219 94.625 98.625 C 94.832031 97.585938 94.886719 96.511719 94.667969 95.359375 C 94.097656 96.617188 93.617188 97.925781 92.933594 99.117188 C 92.027344 100.695312 90.734375 100.972656 89.554688 99.464844 C 88.546875 98.175781 87.601562 96.777344 86.949219 95.285156 C 82.804688 85.792969 80.707031 75.863281 80.828125 65.492188 C 80.839844 64.476562 80.960938 63.445312 81.179688 62.453125 C 81.871094 59.308594 83.152344 58.882812 85.757812 60.871094 C 86.070312 61.109375 86.371094 61.359375 86.679688 61.605469 Z M 86.679688 61.605469 " fill-opacity="1" fill-rule="nonzero"/><path fill="#ffffff" d="M 280.292969 95.375 C 280.175781 98.207031 279.898438 101.398438 283.054688 102.503906 C 286.113281 103.574219 288.042969 101.113281 289.617188 98.972656 C 294.359375 92.523438 296.570312 85.050781 297.289062 77.234375 C 297.699219 72.757812 297.121094 68.1875 296.910156 63.664062 C 296.875 62.910156 296.503906 62.148438 296.171875 61.441406 C 295.367188 59.707031 294.507812 57.890625 292.230469 57.890625 C 289.953125 57.886719 288.863281 59.550781 287.898438 61.34375 C 288.117188 61.414062 288.261719 61.515625 288.347656 61.480469 C 289.660156 60.929688 290.964844 60.367188 292.269531 59.804688 C 292.855469 61.289062 293.832031 62.738281 293.957031 64.261719 C 294.582031 71.882812 293.113281 79.296875 291.089844 86.585938 C 290.253906 89.597656 289.003906 92.5 287.878906 95.425781 C 287.546875 96.300781 287.140625 97.214844 286.527344 97.894531 C 285.675781 98.84375 284.597656 99.59375 283.617188 100.425781 C 282.792969 99.453125 281.894531 98.53125 281.164062 97.488281 C 280.738281 96.878906 280.574219 96.085938 280.292969 95.375 Z M 280.292969 95.375 " fill-opacity="1" fill-rule="nonzero"/><path fill="#ffffff" d="M 224.214844 28.25 C 222.820312 31.566406 221.554688 34.089844 220.75 36.75 C 220.488281 37.617188 221.109375 39.269531 221.871094 39.832031 C 224.683594 41.914062 227.605469 43.917969 230.714844 45.511719 C 232.980469 46.667969 235.847656 44.078125 235.429688 41.125 C 235.171875 39.304688 234.269531 37.277344 233.011719 35.957031 C 230.496094 33.316406 227.535156 31.101562 224.214844 28.25 Z M 224.214844 28.25 " fill-opacity="1" fill-rule="nonzero"/><path fill="#ffffff" d="M 211.527344 60.3125 C 212.824219 59.835938 213.523438 59.582031 214.4375 59.25 C 214.4375 63.222656 214.4375 67.011719 214.4375 71.03125 C 213.765625 70.882812 213.140625 70.746094 211.898438 70.472656 C 212.695312 71.28125 213.179688 71.6875 213.550781 72.175781 C 213.933594 72.683594 214.207031 73.273438 214.53125 73.828125 C 214.003906 74.121094 213.476562 74.417969 212.875 74.753906 C 214.765625 76.179688 216.800781 75.902344 218.820312 75.070312 C 223.640625 73.085938 225.574219 68.21875 225.894531 63.929688 C 225.929688 63.457031 225.257812 62.816406 224.769531 62.4375 C 223.917969 61.785156 222.957031 61.28125 222.214844 60.820312 C 221.910156 63.953125 221.699219 67.039062 221.238281 70.085938 C 221.121094 70.875 220.203125 71.542969 219.378906 72.046875 C 221.75 68.324219 220.742188 64.480469 219.972656 60.816406 C 219.328125 57.75 214.785156 57.3125 211.527344 60.3125 Z M 211.527344 60.3125 " fill-opacity="1" fill-rule="nonzero"/><path fill="#ffffff" d="M 367.851562 85.269531 C 367.269531 88.554688 366.714844 91.707031 366.097656 95.191406 C 367.164062 95.191406 368.144531 95.191406 369.390625 95.191406 C 368.101562 99.457031 368.300781 104.480469 363.40625 107.089844 C 364.648438 108.292969 365.4375 108.394531 366.410156 107.132812 C 367.167969 106.152344 367.808594 105.039062 368.296875 103.898438 C 370.34375 99.144531 371.363281 94.175781 371.046875 88.992188 C 370.867188 86.0625 370.503906 85.703125 367.851562 85.269531 Z M 367.851562 85.269531 " fill-opacity="1" fill-rule="nonzero"/><path fill="#ffffff" d="M 11.902344 107.140625 C 8.472656 105.753906 5.796875 100.257812 5.792969 95.246094 C 6.707031 95.246094 7.625 95.246094 8.765625 95.246094 C 8.167969 91.777344 7.628906 88.621094 7.078125 85.421875 C 5.261719 85.089844 4.285156 85.8125 4.078125 87.519531 C 3.253906 94.386719 4.582031 100.808594 8.15625 106.738281 C 9.074219 108.257812 10.289062 108.34375 11.902344 107.140625 Z M 11.902344 107.140625 " fill-opacity="1" fill-rule="nonzero"/><path fill="#ffffff" d="M 158.410156 63.085938 C 159.949219 61.40625 160.164062 59.546875 159.292969 57.460938 C 158.71875 56.089844 158.289062 54.65625 157.828125 53.242188 C 157.242188 51.453125 156.160156 50.871094 154.355469 51.792969 C 155.320312 54.980469 156.242188 58.171875 157.269531 61.328125 C 157.476562 61.957031 158.078125 62.457031 158.5 63.011719 C 158.5 63.011719 158.410156 63.085938 158.410156 63.085938 Z M 158.410156 63.085938 " fill-opacity="1" fill-rule="nonzero"/><path fill="#ffffff" d="M 213.765625 47.835938 C 212.6875 51.21875 214.648438 55.273438 211.019531 57.5625 C 213.304688 57.050781 215.515625 56.558594 217.796875 56.046875 C 216.558594 53.527344 215.207031 50.773438 213.765625 47.835938 Z M 213.765625 47.835938 " fill-opacity="1" fill-rule="nonzero"/><path fill="#000000" d="M 27.09375 48.675781 C 28.359375 47.828125 29.460938 46.734375 30.78125 46.28125 C 33.5 45.355469 36.03125 47.40625 35.976562 50.269531 C 35.511719 74.660156 40.625 98.070312 48.460938 120.988281 C 49.042969 122.695312 48.625 123.773438 47.261719 124.570312 C 44.558594 126.148438 41.792969 126.480469 38.992188 124.496094 C 38.9375 124.769531 38.789062 125.027344 38.863281 125.167969 C 43.140625 132.96875 47.308594 140.890625 53.640625 147.261719 C 56.015625 149.652344 59.007812 151.675781 62.082031 153.0625 C 65.6875 154.691406 69.066406 153.214844 71.886719 149.746094 C 69.335938 146.914062 66.730469 144.105469 64.21875 141.210938 C 56.273438 132.058594 51.179688 121.398438 48.078125 109.78125 C 43.101562 91.128906 38.859375 72.347656 39.171875 52.855469 C 39.324219 43.433594 40.511719 34.195312 43.820312 25.316406 C 44.289062 24.0625 44.011719 23.488281 42.847656 22.96875 C 39.429688 21.441406 35.503906 22.558594 33.339844 25.914062 C 30.511719 30.300781 29.414062 35.3125 28.445312 40.34375 C 27.914062 43.117188 27.535156 45.921875 27.09375 48.675781 Z M 27.09375 48.675781 " fill-opacity="1" fill-rule="nonzero"/><path fill="#000000" d="M 24.375 127.042969 C 25.324219 128.890625 25.914062 130.523438 26.902344 131.871094 C 29.863281 135.921875 32.710938 140.113281 36.109375 143.777344 C 40.269531 148.261719 43.042969 147.9375 47.097656 143.554688 C 26.175781 111.398438 20.070312 76.328125 25.378906 38.839844 C 19.957031 37.179688 15.90625 38.898438 13.828125 44.140625 C 12.773438 46.800781 12.265625 49.671875 11.996094 52.613281 C 12.996094 51.671875 13.851562 50.402344 15.035156 49.886719 C 16.199219 49.382812 17.785156 49.324219 19.027344 49.652344 C 20.515625 50.050781 20.597656 51.515625 20.503906 52.980469 C 18.941406 77.441406 23.308594 100.910156 32.292969 123.628906 C 32.710938 124.6875 32.75 126.621094 32.105469 127.203125 C 31.105469 128.117188 29.378906 128.511719 27.933594 128.570312 C 26.917969 128.609375 25.867188 127.722656 24.375 127.042969 Z M 24.375 127.042969 " fill-opacity="1" fill-rule="nonzero"/><path fill="#000000" d="M 92.953125 151.5625 C 85.144531 149.773438 80.238281 144.410156 76.246094 138.308594 C 72.6875 132.871094 69.863281 126.957031 66.742188 121.234375 C 66.269531 120.371094 65.953125 119.421875 65.535156 118.445312 C 62.433594 122.699219 60.226562 123.25 55.003906 120.792969 C 56.183594 123.105469 57.097656 125.0625 58.15625 126.941406 C 62.550781 134.730469 67.691406 141.957031 74.453125 147.902344 C 77.738281 150.792969 81.347656 153.109375 85.757812 153.972656 C 88.574219 154.523438 90.808594 153.613281 92.953125 151.5625 Z M 92.953125 151.5625 " fill-opacity="1" fill-rule="nonzero"/><path fill="#000000" d="M 42.492188 46.09375 C 45.832031 42.164062 47.515625 41.992188 51.75 44.699219 C 52.324219 40.414062 52.761719 36.15625 53.492188 31.949219 C 54.464844 26.34375 55.988281 20.890625 59.332031 16.144531 C 61.835938 12.585938 63.734375 11.394531 67.925781 10.574219 C 65.042969 7.632812 58.652344 7.292969 54.472656 10.140625 C 52.835938 11.257812 51.339844 12.820312 50.265625 14.492188 C 46.046875 21.070312 44.539062 28.554688 43.546875 36.160156 C 43.140625 39.261719 42.878906 42.378906 42.492188 46.09375 Z M 42.492188 46.09375 " fill-opacity="1" fill-rule="nonzero"/><path fill="#000000" d="M 331.015625 23.640625 C 332.289062 29.1875 333.820312 34.480469 334.675781 39.882812 C 336.535156 51.554688 336.019531 63.273438 334.253906 74.914062 C 332.085938 89.226562 329.179688 103.394531 324.464844 117.125 C 320.75 127.941406 314.722656 137.339844 306.796875 145.554688 C 305.5 146.898438 304.28125 148.320312 303.035156 149.695312 C 305.769531 153.351562 309.476562 154.726562 313.414062 152.839844 C 316.261719 151.480469 319.023438 149.570312 321.230469 147.324219 C 327.625 140.808594 331.808594 132.742188 336.050781 125.269531 C 333.878906 125.324219 331.605469 125.71875 329.453125 125.363281 C 326.425781 124.867188 325.765625 123.117188 326.730469 120.238281 C 334.238281 97.816406 339.273438 74.941406 338.914062 51.140625 C 338.878906 48.824219 339.316406 47.03125 341.648438 46.308594 C 343.839844 45.625 345.65625 46.382812 346.980469 48.273438 C 347.101562 48.445312 347.269531 48.585938 347.746094 49.085938 C 346.746094 41.109375 345.75 33.574219 342.09375 26.746094 C 339.667969 22.207031 335.386719 21.148438 331.015625 23.640625 Z M 331.015625 23.640625 " fill-opacity="1" fill-rule="nonzero"/><path fill="#000000" d="M 327.742188 143.671875 C 328.28125 144.125 329.125 144.957031 330.082031 145.625 C 332.644531 147.414062 334.550781 147.414062 336.960938 145.441406 C 342.917969 140.5625 347.0625 134.335938 350.476562 127.066406 C 349.167969 127.679688 348.257812 128.234375 347.269531 128.542969 C 345.566406 129.074219 344.015625 128.769531 342.75 127.382812 C 341.585938 126.105469 342.015625 124.875 342.574219 123.472656 C 351.644531 100.714844 356.03125 77.171875 354.359375 52.625 C 354.167969 49.777344 356.859375 48.152344 359.535156 49.660156 C 360.785156 50.367188 361.757812 51.566406 362.8125 52.5 C 363.195312 49.027344 361.351562 43.207031 358.976562 40.726562 C 356.242188 37.867188 352.917969 37.886719 349.472656 38.707031 C 354.847656 76.292969 348.703125 111.261719 327.742188 143.671875 Z M 327.742188 143.671875 " fill-opacity="1" fill-rule="nonzero"/><path fill="#000000" d="M 319.570312 120.90625 C 314.648438 123.289062 312.257812 122.703125 309.503906 118.519531 C 303.074219 131.722656 297.589844 145.695312 282.253906 151.875 C 284.035156 153.609375 286.234375 154.496094 288.988281 153.996094 C 294.089844 153.066406 298.09375 150.199219 301.722656 146.746094 C 309.226562 139.609375 314.90625 131.164062 319.324219 121.839844 C 319.445312 121.585938 319.472656 121.285156 319.570312 120.90625 Z M 319.570312 120.90625 " fill-opacity="1" fill-rule="nonzero"/><path fill="#000000" d="M 332.304688 45.273438 C 331.234375 34.542969 330.484375 23.464844 324.21875 13.78125 C 320.40625 7.886719 312.203125 6.40625 306.472656 10.675781 C 311.515625 10.824219 314.398438 13.917969 316.613281 17.765625 C 320.382812 24.320312 321.617188 31.613281 322.457031 38.992188 C 322.667969 40.863281 322.816406 42.742188 322.972656 44.417969 C 324.644531 43.894531 326.351562 42.867188 327.964844 42.996094 C 329.460938 43.113281 330.855469 44.460938 332.304688 45.273438 Z M 332.304688 45.273438 " fill-opacity="1" fill-rule="nonzero"/></svg>